v 0.120000 0.085000 -0.025000
v 0.080000 0.085000 -0.025000
v 0.080000 0.085000 -0.015000
v 0.120000 0.085000 -0.015000
v 0.120000 0.045000 -0.025000
v 0.120000 0.045000 -0.015000
v -0.040000 -0.175000 -0.025000
v -0.000000 -0.175000 -0.025000
v -0.000000 -0.175000 -0.015000
v -0.040000 -0.175000 -0.015000
v -0.040000 -0.135000 -0.025000
v -0.040000 -0.135000 -0.015000
v -0.040000 0.085000 -0.025000
v -0.040000 0.045000 -0.025000
v -0.040000 0.045000 -0.015000
v -0.040000 0.085000 -0.015000
v -0.000000 0.085000 -0.025000
v -0.000000 0.085000 -0.015000
v -0.060000 0.045000 -0.025000
v -0.060000 0.045000 0.015000
v -0.040000 0.045000 0.015000
v 0.120000 -0.175000 -0.025000
v 0.120000 -0.135000 -0.025000
v 0.120000 -0.135000 -0.015000
v 0.120000 -0.175000 -0.015000
v 0.080000 -0.175000 -0.025000
v 0.080000 -0.175000 -0.015000
v 0.140000 -0.135000 -0.025000
v 0.140000 -0.135000 0.015000
v 0.120000 -0.135000 0.015000
v 0.080000 0.105000 -0.025000
v -0.000000 0.105000 -0.025000
v -0.000000 0.105000 0.015000
v 0.080000 0.105000 0.015000
v 0.080000 0.085000 0.015000
v -0.000000 0.085000 0.015000
v -0.040000 -0.135000 0.015000
v -0.060000 -0.135000 -0.025000
v -0.060000 -0.135000 0.015000
v 0.120000 0.045000 0.015000
v 0.140000 0.045000 -0.025000
v 0.140000 0.045000 0.015000
v -0.000000 -0.195000 -0.025000
v 0.080000 -0.195000 -0.025000
v 0.080000 -0.195000 0.015000
v -0.000000 -0.195000 0.015000
v -0.000000 -0.175000 0.015000
v 0.080000 -0.175000 0.015000
vt -0.000000 0.000000 0.000000
vt 0.004000 0.000000 0.000000
vt -0.000000 0.001000 0.000000
vt 0.004000 0.001000 0.000000
vt 0.000000 0.000000 0.000000
vt 0.004000 0.000000 0.000000
vt 0.000000 0.001000 0.000000
vt 0.004000 0.001000 0.000000
vt 0.000000 0.000000 0.000000
vt 0.004000 0.000000 0.000000
vt 0.000000 0.001000 0.000000
vt 0.004000 0.001000 0.000000
vt -0.000000 0.000000 0.000000
vt 0.004000 0.000000 0.000000
vt -0.000000 0.001000 0.000000
vt 0.004000 0.001000 0.000000
vt -0.000000 0.000000 0.000000
vt 0.004000 0.000000 0.000000
vt -0.000000 0.001000 0.000000
vt 0.004000 0.001000 0.000000
vt -0.000000 0.000000 0.000000
vt 0.004000 0.000000 0.000000
vt -0.000000 0.001000 0.000000
vt 0.004000 0.001000 0.000000
vt 0.004000 0.000000 0.000000
vt 0.006000 0.000000 0.000000
vt 0.004000 0.001000 0.000000
vt 0.006000 0.004000 0.000000
vt 0.004000 0.004000 0.000000
vt 0.000000 0.000000 0.000000
vt 0.004000 0.000000 0.000000
vt 0.000000 0.001000 0.000000
vt 0.004000 0.001000 0.000000
vt 0.000000 0.000000 0.000000
vt 0.004000 0.000000 0.000000
vt 0.000000 0.001000 0.000000
vt 0.004000 0.001000 0.000000
vt 0.004000 0.000000 0.000000
vt 0.006000 0.000000 0.000000
vt 0.004000 0.001000 0.000000
vt 0.006000 0.004000 0.000000
vt 0.004000 0.004000 0.000000
vt 0.000000 0.000000 0.000000
vt 0.008000 0.000000 0.000000
vt 0.000000 0.004000 0.000000
vt 0.008000 0.004000 0.000000
vt 0.000000 0.001000 0.000000
vt 0.008000 0.001000 0.000000
vt 0.000000 0.004000 0.000000
vt 0.008000 0.004000 0.000000
vt -0.004000 -0.001000 0.000000
vt 0.004000 -0.001000 0.000000
vt -0.004000 0.001000 0.000000
vt 0.004000 0.001000 0.000000
vt 0.000000 0.001000 0.000000
vt 0.018000 0.001000 0.000000
vt 0.000000 0.004000 0.000000
vt 0.018000 0.004000 0.000000
vt 0.000000 0.000000 0.000000
vt 0.018000 0.000000 0.000000
vt 0.000000 0.004000 0.000000
vt 0.018000 0.004000 0.000000
vt 0.001000 0.009000 0.000000
vt -0.001000 0.009000 0.000000
vt 0.001000 -0.009000 0.000000
vt -0.001000 -0.009000 0.000000
vt 0.000000 0.001000 0.000000
vt 0.018000 0.001000 0.000000
vt 0.000000 0.004000 0.000000
vt 0.018000 0.004000 0.000000
vt 0.000000 0.000000 0.000000
vt 0.018000 0.000000 0.000000
vt 0.000000 0.004000 0.000000
vt 0.018000 0.004000 0.000000
vt -0.001000 -0.009000 0.000000
vt 0.001000 -0.009000 0.000000
vt -0.001000 0.009000 0.000000
vt 0.001000 0.009000 0.000000
vt 0.000000 0.000000 0.000000
vt 0.008000 0.000000 0.000000
vt 0.000000 0.004000 0.000000
vt 0.008000 0.004000 0.000000
vt 0.000000 0.001000 0.000000
vt 0.008000 0.001000 0.000000
vt 0.000000 0.004000 0.000000
vt 0.008000 0.004000 0.000000
vt 0.004000 0.001000 0.000000
vt -0.004000 0.001000 0.000000
vt 0.004000 -0.001000 0.000000
vt -0.004000 -0.001000 0.000000
vt 0.004000 0.000000 0.000000
vt 0.006000 0.000000 0.000000
vt 0.004000 0.001000 0.000000
vt 0.006000 0.004000 0.000000
vt 0.004000 0.004000 0.000000
vt 0.000000 0.000000 0.000000
vt 0.000000 0.001000 0.000000
vt -0.002000 0.000000 0.000000
vt -0.002000 0.004000 0.000000
vt 0.000000 0.004000 0.000000
vt 0.000000 0.000000 0.000000
vt 0.000000 0.001000 0.000000
vt -0.002000 0.000000 0.000000
vt -0.002000 0.004000 0.000000
vt 0.000000 0.004000 0.000000
vt 0.004000 0.000000 0.000000
vt 0.006000 0.000000 0.000000
vt 0.004000 0.001000 0.000000
vt 0.006000 0.004000 0.000000
vt 0.004000 0.004000 0.000000
vt -0.000000 0.000000 0.000000
vt -0.000000 0.001000 0.000000
vt -0.002000 0.000000 0.000000
vt -0.002000 0.004000 0.000000
vt -0.000000 0.004000 0.000000
vt 0.000000 0.000000 0.000000
vt 0.000000 0.001000 0.000000
vt -0.002000 0.000000 0.000000
vt -0.002000 0.004000 0.000000
vt 0.000000 0.004000 0.000000
vt 0.008000 0.009000 0.000000
vt 0.004000 0.013000 0.000000
vt 0.008000 -0.009000 0.000000
vt 0.004000 -0.013000 0.000000
vt 0.008000 -0.013000 0.000000
vt 0.008000 0.013000 0.000000
vt -0.004000 0.013000 0.000000
vt -0.004000 -0.013000 0.000000
vt -0.008000 -0.009000 0.000000
vt -0.008000 -0.013000 0.000000
vt -0.008000 0.013000 0.000000
vt -0.008000 0.009000 0.000000
vt -0.004000 -0.015000 0.000000
vt 0.004000 -0.015000 0.000000
vt -0.004000 -0.013000 0.000000
vt 0.004000 -0.013000 0.000000
vt -0.004000 0.013000 0.000000
vt 0.004000 0.013000 0.000000
vt -0.004000 0.015000 0.000000
vt 0.004000 0.015000 0.000000
vt 0.008000 -0.013000 0.000000
vt 0.008000 -0.009000 0.000000
vt 0.008000 0.009000 0.000000
vt 0.010000 -0.009000 0.000000
vt 0.010000 0.009000 0.000000
vt 0.008000 0.013000 0.000000
vt -0.008000 0.013000 0.000000
vt -0.008000 0.009000 0.000000
vt -0.008000 -0.009000 0.000000
vt -0.010000 0.009000 0.000000
vt -0.010000 -0.009000 0.000000
vt -0.008000 -0.013000 0.000000
vn 0.000000 0.100000 0.000000
vn 0.000000 0.100000 0.000000
vn 0.000000 0.100000 0.000000
vn 0.000000 0.100000 0.000000
vn 0.100000 0.000000 0.000000
vn 0.100000 0.000000 0.000000
vn 0.100000 0.000000 0.000000
vn 0.100000 0.000000 0.000000
vn 0.000000 -0.100000 0.000000
vn 0.000000 -0.100000 0.000000
vn 0.000000 -0.100000 0.000000
vn 0.000000 -0.100000 0.000000
vn -0.100000 0.000000 0.000000
vn -0.100000 0.000000 0.000000
vn -0.100000 0.000000 0.000000
vn -0.100000 0.000000 0.000000
vn -0.100000 0.000000 0.000000
vn -0.100000 0.000000 0.000000
vn -0.100000 0.000000 0.000000
vn -0.100000 0.000000 0.000000
vn 0.000000 0.100000 0.000000
vn 0.000000 0.100000 0.000000
vn 0.000000 0.100000 0.000000
vn 0.000000 0.100000 0.000000
vn 0.000000 0.100000 0.000000
vn 0.000000 0.100000 0.000000
vn 0.000000 0.100000 0.000000
vn 0.000000 0.100000 0.000000
vn 0.000000 0.100000 0.000000
vn 0.100000 0.000000 0.000000
vn 0.100000 0.000000 0.000000
vn 0.100000 0.000000 0.000000
vn 0.100000 0.000000 0.000000
vn 0.000000 -0.100000 0.000000
vn 0.000000 -0.100000 0.000000
vn 0.000000 -0.100000 0.000000
vn 0.000000 -0.100000 0.000000
vn 0.000000 -0.100000 0.000000
vn 0.000000 -0.100000 0.000000
vn 0.000000 -0.100000 0.000000
vn 0.000000 -0.100000 0.000000
vn 0.000000 -0.100000 0.000000
vn 0.000000 0.100000 0.000000
vn 0.000000 0.100000 0.000000
vn 0.000000 0.100000 0.000000
vn 0.000000 0.100000 0.000000
vn 0.000000 -0.100000 0.000000
vn 0.000000 -0.100000 0.000000
vn 0.000000 -0.100000 0.000000
vn 0.000000 -0.100000 0.000000
vn 0.000000 0.000000 0.100000
vn 0.000000 0.000000 0.100000
vn 0.000000 0.000000 0.100000
vn 0.000000 0.000000 0.100000
vn 0.100000 0.000000 0.000000
vn 0.100000 0.000000 0.000000
vn 0.100000 0.000000 0.000000
vn 0.100000 0.000000 0.000000
vn -0.100000 0.000000 0.000000
vn -0.100000 0.000000 0.000000
vn -0.100000 0.000000 0.000000
vn -0.100000 0.000000 0.000000
vn 0.000000 0.000000 0.100000
vn 0.000000 0.000000 0.100000
vn 0.000000 0.000000 0.100000
vn 0.000000 0.000000 0.100000
vn -0.100000 0.000000 0.000000
vn -0.100000 0.000000 0.000000
vn -0.100000 0.000000 0.000000
vn -0.100000 0.000000 0.000000
vn 0.100000 0.000000 0.000000
vn 0.100000 0.000000 0.000000
vn 0.100000 0.000000 0.000000
vn 0.100000 0.000000 0.000000
vn 0.000000 0.000000 0.100000
vn 0.000000 0.000000 0.100000
vn 0.000000 0.000000 0.100000
vn 0.000000 0.000000 0.100000
vn 0.000000 -0.100000 0.000000
vn 0.000000 -0.100000 0.000000
vn 0.000000 -0.100000 0.000000
vn 0.000000 -0.100000 0.000000
vn 0.000000 0.100000 0.000000
vn 0.000000 0.100000 0.000000
vn 0.000000 0.100000 0.000000
vn 0.000000 0.100000 0.000000
vn 0.000000 0.000000 0.100000
vn 0.000000 0.000000 0.100000
vn 0.000000 0.000000 0.100000
vn 0.000000 0.000000 0.100000
vn -0.100000 0.000000 0.000000
vn -0.100000 0.000000 0.000000
vn -0.100000 0.000000 0.000000
vn -0.100000 0.000000 0.000000
vn -0.100000 0.000000 0.000000
vn 0.000000 -0.100000 0.000000
vn 0.000000 -0.100000 0.000000
vn 0.000000 -0.100000 0.000000
vn 0.000000 -0.100000 0.000000
vn 0.000000 -0.100000 0.000000
vn -0.100000 0.000000 0.000000
vn -0.100000 0.000000 0.000000
vn -0.100000 0.000000 0.000000
vn -0.100000 0.000000 0.000000
vn -0.100000 0.000000 0.000000
vn 0.100000 0.000000 0.000000
vn 0.100000 0.000000 0.000000
vn 0.100000 0.000000 0.000000
vn 0.100000 0.000000 0.000000
vn 0.100000 0.000000 0.000000
vn 0.000000 0.100000 0.000000
vn 0.000000 0.100000 0.000000
vn 0.000000 0.100000 0.000000
vn 0.000000 0.100000 0.000000
vn 0.000000 0.100000 0.000000
vn 0.100000 0.000000 0.000000
vn 0.100000 0.000000 0.000000
vn 0.100000 0.000000 0.000000
vn 0.100000 0.000000 0.000000
vn 0.100000 0.000000 0.000000
vn 0.000000 0.000000 0.100000
vn 0.000000 0.000000 0.100000
vn 0.000000 0.000000 0.100000
vn 0.000000 0.000000 0.100000
vn 0.000000 0.000000 0.100000
vn 0.000000 0.000000 0.100000
vn 0.000000 0.000000 0.100000
vn 0.000000 0.000000 0.100000
vn 0.000000 0.000000 0.100000
vn 0.000000 0.000000 0.100000
vn 0.000000 0.000000 0.100000
vn 0.000000 0.000000 0.100000
vn 0.000000 0.000000 -0.100000
vn 0.000000 0.000000 -0.100000
vn 0.000000 0.000000 -0.100000
vn 0.000000 0.000000 -0.100000
vn 0.000000 0.000000 -0.100000
vn 0.000000 0.000000 -0.100000
vn 0.000000 0.000000 -0.100000
vn 0.000000 0.000000 -0.100000
vn 0.000000 0.000000 -0.100000
vn 0.000000 0.000000 -0.100000
vn 0.000000 0.000000 -0.100000
vn 0.000000 0.000000 -0.100000
vn 0.000000 0.000000 -0.100000
vn 0.000000 0.000000 -0.100000
vn 0.000000 0.000000 -0.100000
vn 0.000000 0.000000 -0.100000
vn 0.000000 0.000000 -0.100000
vn 0.000000 0.000000 -0.100000
vn 0.000000 0.000000 -0.100000
vn 0.000000 0.000000 -0.100000
usemtl Steel_-_Satin
f 1/1/1 2/2/2 4/3/3
f 4/3/3 2/2/2 3/4/4
f 5/5/5 1/6/6 6/7/7
f 6/7/7 1/6/6 4/8/8
f 7/9/9 8/10/10 10/11/11
f 10/11/11 8/10/10 9/12/12
f 11/13/13 7/14/14 12/15/15
f 12/15/15 7/14/14 10/16/16
f 13/17/17 14/18/18 16/19/19
f 16/19/19 14/18/18 15/20/20
f 17/21/21 13/22/22 18/23/23
f 18/23/23 13/22/22 16/24/24
f 14/25/25 19/26/26 15/27/27
f 15/27/27 19/26/26 20/28/28
f 15/27/27 20/28/28 21/29/29
f 22/30/30 23/31/31 25/32/32
f 25/32/32 23/31/31 24/33/33
f 26/34/34 22/35/35 27/36/36
f 27/36/36 22/35/35 25/37/37
f 23/38/38 28/39/39 24/40/40
f 24/40/40 28/39/39 29/41/41
f 24/40/40 29/41/41 30/42/42
f 31/43/43 32/44/44 34/45/45
f 34/45/45 32/44/44 33/46/46
f 18/47/47 3/48/48 36/49/49
f 36/49/49 3/48/48 35/50/50
f 36/51/51 35/52/52 33/53/53
f 33/53/53 35/52/52 34/54/54
f 12/55/55 15/56/56 37/57/57
f 37/57/57 15/56/56 21/58/58
f 19/59/59 38/60/60 20/61/61
f 20/61/61 38/60/60 39/62/62
f 21/63/63 20/64/64 37/65/65
f 37/65/65 20/64/64 39/66/66
f 6/67/67 24/68/68 40/69/69
f 40/69/69 24/68/68 30/70/70
f 28/71/71 41/72/72 29/73/73
f 29/73/73 41/72/72 42/74/74
f 30/75/75 29/76/76 40/77/77
f 40/77/77 29/76/76 42/78/78
f 43/79/79 44/80/80 46/81/81
f 46/81/81 44/80/80 45/82/82
f 27/83/83 9/84/84 48/85/85
f 48/85/85 9/84/84 47/86/86
f 48/87/87 47/88/88 45/89/89
f 45/89/89 47/88/88 46/90/90
f 8/91/91 43/92/92 9/93/93
f 9/93/93 43/92/92 46/94/94
f 9/93/93 46/94/94 47/95/95
f 11/96/96 12/97/97 38/98/98
f 38/98/98 12/97/97 39/99/99
f 39/99/99 12/97/97 37/100/100
f 17/101/101 18/102/102 32/103/103
f 32/103/103 18/102/102 33/104/104
f 33/104/104 18/102/102 36/105/105
f 2/106/106 31/107/107 3/108/108
f 3/108/108 31/107/107 34/109/109
f 3/108/108 34/109/109 35/110/110
f 5/111/111 6/112/112 41/113/113
f 41/113/113 6/112/112 42/114/114
f 42/114/114 6/112/112 40/115/115
f 26/116/116 27/117/117 44/118/118
f 44/118/118 27/117/117 45/119/119
f 45/119/119 27/117/117 48/120/120
f 6/121/121 3/122/122 24/123/123
f 24/123/123 3/122/122 27/124/124
f 24/123/123 27/124/124 25/125/125
f 6/121/121 4/126/126 3/122/122
f 3/122/122 18/127/127 27/124/124
f 27/124/124 18/127/127 9/128/128
f 9/128/128 18/127/127 12/129/129
f 9/128/128 12/129/129 10/130/130
f 16/131/131 15/132/132 18/127/127
f 18/127/127 15/132/132 12/129/129
f 44/133/133 43/134/134 26/135/135
f 26/135/135 43/134/134 8/136/136
f 26/135/135 8/136/136 2/137/137
f 2/137/137 8/136/136 17/138/138
f 2/137/137 17/138/138 31/139/139
f 31/139/139 17/138/138 32/140/140
f 7/141/141 11/142/142 8/136/136
f 8/136/136 11/142/142 17/138/138
f 17/138/138 11/142/142 14/143/143
f 14/143/143 11/142/142 38/144/144
f 14/143/143 38/144/144 19/145/145
f 14/143/143 13/146/146 17/138/138
f 1/147/147 5/148/148 2/137/137
f 2/137/137 5/148/148 26/135/135
f 26/135/135 5/148/148 23/149/149
f 23/149/149 5/148/148 41/150/150
f 23/149/149 41/150/150 28/151/151
f 23/149/149 22/152/152 26/135/135
